<?xml version="1.0" encoding="UTF-8" standalone="no"?>
<!DOCTYPE svg PUBLIC "-//W3C//DTD SVG 1.1//EN"
 "http://www.w3.org/Graphics/SVG/1.1/DTD/svg11.dtd">
<!-- Generated by graphviz version 2.28.0 (20121221.0058)
 -->
<!-- Title: _anonymous_0 Pages: 1 -->
<svg width="1191pt" height="1633pt"
 viewBox="0.00 0.00 1191.00 1633.00" xmlns="http://www.w3.org/2000/svg" xmlns:xlink="http://www.w3.org/1999/xlink">
<g id="graph1" class="graph" transform="scale(1 1) rotate(0) translate(4 1629)">
<title>_anonymous_0</title>
<polygon fill="white" stroke="white" points="-4,5 -4,-1629 1188,-1629 1188,5 -4,5"/>
<!-- Crickxson -->
<g id="node1" class="node"><title>Crickxson</title>
<ellipse fill="none" stroke="black" cx="170.448" cy="-170.596" rx="49.0941" ry="18"/>
<text text-anchor="middle" x="170.448" y="-166.896" font-family="Times,serif" font-size="14.00">Crickxson</text>
</g>
<!-- claimed -->
<g id="node3" class="node"><title>claimed</title>
<ellipse fill="none" stroke="black" cx="193.803" cy="-48.0079" rx="39.4691" ry="18"/>
<text text-anchor="middle" x="193.803" y="-44.3079" font-family="Times,serif" font-size="14.00">claimed</text>
</g>
<!-- Crickxson&#45;&gt;claimed -->
<g id="edge2" class="edge"><title>Crickxson&#45;&gt;claimed</title>
<path fill="none" stroke="black" d="M173.894,-152.508C177.724,-132.409 183.955,-99.6987 188.427,-76.2264"/>
<polygon fill="black" stroke="black" points="191.909,-76.6488 190.343,-66.1704 185.033,-75.3387 191.909,-76.6488"/>
</g>
<!-- la -->
<g id="node4" class="node"><title>la</title>
<ellipse fill="none" stroke="black" cx="308.217" cy="-17.8963" rx="27" ry="18"/>
<text text-anchor="middle" x="308.217" y="-14.1963" font-family="Times,serif" font-size="14.00">la</text>
</g>
<!-- claimed&#45;&gt;la -->
<g id="edge3" class="edge"><title>claimed&#45;&gt;la</title>
<path fill="none" stroke="black" d="M228.131,-38.9734C242.326,-35.2375 258.772,-30.9094 273.053,-27.1508"/>
<polygon fill="black" stroke="black" points="274.227,-30.4611 283.007,-24.5312 272.445,-23.6916 274.227,-30.4611"/>
</g>
<!-- home -->
<g id="node5" class="node"><title>home</title>
<ellipse fill="none" stroke="black" cx="411.601" cy="-19.5136" rx="31.2735" ry="18"/>
<text text-anchor="middle" x="411.601" y="-15.8136" font-family="Times,serif" font-size="14.00">home</text>
</g>
<!-- la&#45;&gt;home -->
<g id="edge4" class="edge"><title>la&#45;&gt;home</title>
<path fill="none" stroke="black" d="M335.38,-18.3212C345.732,-18.4831 357.792,-18.6718 369.224,-18.8506"/>
<polygon fill="black" stroke="black" points="369.425,-22.3541 379.478,-19.011 369.534,-15.355 369.425,-22.3541"/>
</g>
<!-- est -->
<g id="node6" class="node"><title>est</title>
<ellipse fill="none" stroke="black" cx="537.844" cy="-47.2386" rx="27" ry="18"/>
<text text-anchor="middle" x="537.844" y="-43.5386" font-family="Times,serif" font-size="14.00">est</text>
</g>
<!-- home&#45;&gt;est -->
<g id="edge5" class="edge"><title>home&#45;&gt;est</title>
<path fill="none" stroke="black" d="M441.519,-26.084C459.69,-30.0746 482.992,-35.1923 502.126,-39.3944"/>
<polygon fill="black" stroke="black" points="501.467,-42.8329 511.985,-41.5595 502.969,-35.9959 501.467,-42.8329"/>
</g>
<!-- toujours -->
<g id="node7" class="node"><title>toujours</title>
<ellipse fill="none" stroke="black" cx="653.78" cy="-88.39" rx="41.394" ry="18"/>
<text text-anchor="middle" x="653.78" y="-84.69" font-family="Times,serif" font-size="14.00">toujours</text>
</g>
<!-- est&#45;&gt;toujours -->
<g id="edge6" class="edge"><title>est&#45;&gt;toujours</title>
<path fill="none" stroke="black" d="M561.866,-55.7652C576.281,-60.8819 595.021,-67.5335 611.816,-73.4948"/>
<polygon fill="black" stroke="black" points="610.838,-76.8615 621.432,-76.9082 613.179,-70.2647 610.838,-76.8615"/>
</g>
<!-- curieuse -->
<g id="node8" class="node"><title>curieuse</title>
<ellipse fill="none" stroke="black" cx="800.302" cy="-164.131" rx="40.4202" ry="18"/>
<text text-anchor="middle" x="800.302" y="-160.431" font-family="Times,serif" font-size="14.00">curieuse</text>
</g>
<!-- toujours&#45;&gt;curieuse -->
<g id="edge7" class="edge"><title>toujours&#45;&gt;curieuse</title>
<path fill="none" stroke="black" d="M680.654,-102.282C704.2,-114.453 738.605,-132.238 764.485,-145.616"/>
<polygon fill="black" stroke="black" points="763.107,-148.844 773.598,-150.327 766.322,-142.626 763.107,-148.844"/>
</g>
<!-- elle -->
<g id="node9" class="node"><title>elle</title>
<ellipse fill="none" stroke="black" cx="901.631" cy="-240.394" rx="27" ry="18"/>
<text text-anchor="middle" x="901.631" y="-236.694" font-family="Times,serif" font-size="14.00">elle</text>
</g>
<!-- curieuse&#45;&gt;elle -->
<g id="edge8" class="edge"><title>curieuse&#45;&gt;elle</title>
<path fill="none" stroke="black" d="M821.297,-179.933C836.995,-191.747 858.56,-207.977 875.394,-220.648"/>
<polygon fill="black" stroke="black" points="873.616,-223.689 883.71,-226.906 877.825,-218.096 873.616,-223.689"/>
</g>
<!-- aussi. -->
<g id="node10" class="node"><title>aussi.</title>
<ellipse fill="none" stroke="black" cx="995.554" cy="-346.619" rx="31.2965" ry="18"/>
<text text-anchor="middle" x="995.554" y="-342.919" font-family="Times,serif" font-size="14.00">aussi.</text>
</g>
<!-- elle&#45;&gt;aussi. -->
<g id="edge9" class="edge"><title>elle&#45;&gt;aussi.</title>
<path fill="none" stroke="black" d="M915.489,-256.068C931.076,-273.696 956.561,-302.52 974.587,-322.906"/>
<polygon fill="black" stroke="black" points="972.084,-325.36 981.33,-330.533 977.328,-320.723 972.084,-325.36"/>
</g>
<!-- Wednesday, -->
<g id="node11" class="node"><title>Wednesday,</title>
<ellipse fill="none" stroke="black" cx="1060.63" cy="-475.515" rx="55.3436" ry="18"/>
<text text-anchor="middle" x="1060.63" y="-471.815" font-family="Times,serif" font-size="14.00">Wednesday,</text>
</g>
<!-- aussi.&#45;&gt;Wednesday, -->
<g id="edge10" class="edge"><title>aussi.&#45;&gt;Wednesday,</title>
<path fill="none" stroke="black" d="M1004.33,-364.003C1015.28,-385.695 1034.13,-423.028 1046.98,-448.469"/>
<polygon fill="black" stroke="black" points="1043.95,-450.231 1051.58,-457.58 1050.2,-447.076 1043.95,-450.231"/>
</g>
<!-- 27th -->
<g id="node12" class="node"><title>27th</title>
<ellipse fill="none" stroke="black" cx="1085.05" cy="-638.566" rx="27.4223" ry="18"/>
<text text-anchor="middle" x="1085.05" y="-634.866" font-family="Times,serif" font-size="14.00">27th</text>
</g>
<!-- Wednesday,&#45;&gt;27th -->
<g id="edge11" class="edge"><title>Wednesday,&#45;&gt;27th</title>
<path fill="none" stroke="black" d="M1063.34,-493.588C1067.58,-521.869 1075.8,-576.81 1080.83,-610.34"/>
<polygon fill="black" stroke="black" points="1077.39,-611.041 1082.33,-620.413 1084.31,-610.005 1077.39,-611.041"/>
</g>
<!-- June -->
<g id="node13" class="node"><title>June</title>
<ellipse fill="none" stroke="black" cx="1059.04" cy="-746.757" rx="27.4223" ry="18"/>
<text text-anchor="middle" x="1059.04" y="-743.057" font-family="Times,serif" font-size="14.00">June</text>
</g>
<!-- 27th&#45;&gt;June -->
<g id="edge12" class="edge"><title>27th&#45;&gt;June</title>
<path fill="none" stroke="black" d="M1080.76,-656.431C1076.67,-673.424 1070.47,-699.243 1065.73,-718.931"/>
<polygon fill="black" stroke="black" points="1062.28,-718.324 1063.34,-728.865 1069.08,-719.96 1062.28,-718.324"/>
</g>
<!-- 2012 -->
<g id="node14" class="node"><title>2012</title>
<ellipse fill="none" stroke="black" cx="1047.64" cy="-883.945" rx="30.3206" ry="18"/>
<text text-anchor="middle" x="1047.64" y="-880.245" font-family="Times,serif" font-size="14.00">2012</text>
</g>
<!-- June&#45;&gt;2012 -->
<g id="edge13" class="edge"><title>June&#45;&gt;2012</title>
<path fill="none" stroke="black" d="M1040.26,-760.241C1027.04,-783.058 1022.05,-829.529 1028.69,-858.581"/>
<polygon fill="black" stroke="black" points="1025.42,-859.863 1031.67,-868.419 1032.12,-857.834 1025.42,-859.863"/>
</g>
<!-- June&#45;&gt;2012 -->
<g id="edge22" class="edge"><title>June&#45;&gt;2012</title>
<path fill="none" stroke="black" d="M1074.72,-761.557C1084.54,-785.329 1082.2,-832.13 1071.14,-860.483"/>
<polygon fill="black" stroke="black" points="1067.91,-859.13 1066.87,-869.674 1074.26,-862.079 1067.91,-859.13"/>
</g>
<!-- June&#45;&gt;2012 -->
<g id="edge31" class="edge"><title>June&#45;&gt;2012</title>
<path fill="none" stroke="black" d="M1066.81,-764.065C1069.91,-787.484 1067.07,-829.481 1061.02,-857.034"/>
<polygon fill="black" stroke="black" points="1057.61,-856.265 1058.55,-866.818 1064.39,-857.978 1057.61,-856.265"/>
</g>
<!-- June&#45;&gt;2012 -->
<g id="edge50" class="edge"><title>June&#45;&gt;2012</title>
<path fill="none" stroke="black" d="M1057.53,-764.975C1055.6,-788.139 1052.26,-828.385 1050,-855.582"/>
<polygon fill="black" stroke="black" points="1046.5,-855.396 1049.16,-865.652 1053.48,-855.976 1046.5,-855.396"/>
</g>
<!-- June&#45;&gt;2012 -->
<g id="edge68" class="edge"><title>June&#45;&gt;2012</title>
<path fill="none" stroke="black" d="M1048.28,-763.358C1041.43,-786.373 1037.4,-828.265 1038.93,-856.108"/>
<polygon fill="black" stroke="black" points="1035.47,-856.724 1039.84,-866.376 1042.45,-856.106 1035.47,-856.724"/>
</g>
<!-- &#45; -->
<g id="node15" class="node"><title>&#45;</title>
<ellipse fill="none" stroke="black" cx="991.845" cy="-983.197" rx="27" ry="18"/>
<text text-anchor="middle" x="991.845" y="-979.497" font-family="Times,serif" font-size="14.00">&#45;</text>
</g>
<!-- 2012&#45;&gt;&#45; -->
<g id="edge14" class="edge"><title>2012&#45;&gt;&#45;</title>
<path fill="none" stroke="black" d="M1019.56,-890.91C1002.38,-905.249 986.363,-933.814 983.155,-955.882"/>
<polygon fill="black" stroke="black" points="979.648,-955.946 982.66,-966.103 986.64,-956.284 979.648,-955.946"/>
</g>
<!-- 2012&#45;&gt;&#45; -->
<g id="edge23" class="edge"><title>2012&#45;&gt;&#45;</title>
<path fill="none" stroke="black" d="M1056.83,-901.167C1058.12,-921.566 1043.23,-952.812 1025.62,-970.928"/>
<polygon fill="black" stroke="black" points="1023.05,-968.533 1017.95,-977.818 1027.73,-973.741 1023.05,-968.533"/>
</g>
<!-- 2012&#45;&gt;&#45; -->
<g id="edge32" class="edge"><title>2012&#45;&gt;&#45;</title>
<path fill="none" stroke="black" d="M1048.46,-902.023C1043.6,-919.159 1030.33,-944.512 1017.44,-962.427"/>
<polygon fill="black" stroke="black" points="1014.5,-960.498 1011.18,-970.556 1020.05,-964.769 1014.5,-960.498"/>
</g>
<!-- 2012&#45;&gt;&#45; -->
<g id="edge51" class="edge"><title>2012&#45;&gt;&#45;</title>
<path fill="none" stroke="black" d="M1037.92,-901.233C1029.28,-916.604 1016.52,-939.305 1006.62,-956.922"/>
<polygon fill="black" stroke="black" points="1003.3,-955.674 1001.45,-966.107 1009.4,-959.105 1003.3,-955.674"/>
</g>
<!-- 2012&#45;&gt;&#45; -->
<g id="edge69" class="edge"><title>2012&#45;&gt;&#45;</title>
<path fill="none" stroke="black" d="M1027.37,-897.733C1015.18,-912.751 1001.5,-936.729 994.253,-955.569"/>
<polygon fill="black" stroke="black" points="990.902,-954.553 991.013,-965.148 997.533,-956.796 990.902,-954.553"/>
</g>
<!-- 21:07 -->
<g id="node16" class="node"><title>21:07</title>
<ellipse fill="none" stroke="black" cx="925.195" cy="-903.347" rx="32.2457" ry="18"/>
<text text-anchor="middle" x="925.195" y="-899.647" font-family="Times,serif" font-size="14.00">21:07</text>
</g>
<!-- &#45;&#45;&gt;21:07 -->
<g id="edge15" class="edge"><title>&#45;&#45;&gt;21:07</title>
<path fill="none" stroke="black" d="M978.677,-967.421C969.279,-956.161 956.454,-940.797 945.719,-927.936"/>
<polygon fill="black" stroke="black" points="948.119,-925.349 939.024,-919.915 942.745,-929.835 948.119,-925.349"/>
</g>
<!-- 10:55 -->
<g id="node22" class="node"><title>10:55</title>
<ellipse fill="none" stroke="black" cx="892.349" cy="-967.354" rx="32.2457" ry="18"/>
<text text-anchor="middle" x="892.349" y="-963.654" font-family="Times,serif" font-size="14.00">10:55</text>
</g>
<!-- &#45;&#45;&gt;10:55 -->
<g id="edge24" class="edge"><title>&#45;&#45;&gt;10:55</title>
<path fill="none" stroke="black" d="M965.443,-978.993C955.758,-977.451 944.546,-975.665 933.856,-973.963"/>
<polygon fill="black" stroke="black" points="934.26,-970.484 923.834,-972.368 933.159,-977.397 934.26,-970.484"/>
</g>
<!-- 10:56 -->
<g id="node25" class="node"><title>10:56</title>
<ellipse fill="none" stroke="black" cx="876.462" cy="-1017.01" rx="32.2457" ry="18"/>
<text text-anchor="middle" x="876.462" y="-1013.31" font-family="Times,serif" font-size="14.00">10:56</text>
</g>
<!-- &#45;&#45;&gt;10:56 -->
<g id="edge33" class="edge"><title>&#45;&#45;&gt;10:56</title>
<path fill="none" stroke="black" d="M967.093,-990.45C951.926,-994.894 932.191,-1000.68 915.011,-1005.71"/>
<polygon fill="black" stroke="black" points="913.857,-1002.4 905.245,-1008.57 915.825,-1009.12 913.857,-1002.4"/>
</g>
<!-- 15:37 -->
<g id="node38" class="node"><title>15:37</title>
<ellipse fill="none" stroke="black" cx="952.756" cy="-1115.6" rx="32.2457" ry="18"/>
<text text-anchor="middle" x="952.756" y="-1111.9" font-family="Times,serif" font-size="14.00">15:37</text>
</g>
<!-- &#45;&#45;&gt;15:37 -->
<g id="edge52" class="edge"><title>&#45;&#45;&gt;15:37</title>
<path fill="none" stroke="black" d="M986.573,-1001.05C979.987,-1023.36 968.646,-1061.77 960.931,-1087.91"/>
<polygon fill="black" stroke="black" points="957.544,-1087.02 958.069,-1097.6 964.257,-1089 957.544,-1087.02"/>
</g>
<!-- 17:50 -->
<g id="node51" class="node"><title>17:50</title>
<ellipse fill="none" stroke="black" cx="1058.32" cy="-1069" rx="32.2457" ry="18"/>
<text text-anchor="middle" x="1058.32" y="-1065.3" font-family="Times,serif" font-size="14.00">17:50</text>
</g>
<!-- &#45;&#45;&gt;17:50 -->
<g id="edge70" class="edge"><title>&#45;&#45;&gt;17:50</title>
<path fill="none" stroke="black" d="M1004.35,-999.336C1014.16,-1012 1027.98,-1029.84 1039.18,-1044.29"/>
<polygon fill="black" stroke="black" points="1036.53,-1046.59 1045.42,-1052.35 1042.06,-1042.3 1036.53,-1046.59"/>
</g>
<!-- Stéphanie Vilayphiou -->
<g id="node17" class="node"><title>Stéphanie Vilayphiou</title>
<ellipse fill="none" stroke="black" cx="746.761" cy="-897.503" rx="91.4625" ry="18"/>
<text text-anchor="middle" x="746.761" y="-893.803" font-family="Times,serif" font-size="14.00">Stéphanie Vilayphiou</text>
</g>
<!-- 21:07&#45;&gt;Stéphanie Vilayphiou -->
<g id="edge16" class="edge"><title>21:07&#45;&gt;Stéphanie Vilayphiou</title>
<path fill="none" stroke="black" d="M892.882,-902.289C879.825,-901.861 863.976,-901.342 847.596,-900.806"/>
<polygon fill="black" stroke="black" points="847.458,-897.299 837.349,-900.47 847.229,-904.295 847.458,-897.299"/>
</g>
<!-- disclosed -->
<g id="node18" class="node"><title>disclosed</title>
<ellipse fill="none" stroke="black" cx="749.83" cy="-842.55" rx="44.271" ry="18"/>
<text text-anchor="middle" x="749.83" y="-838.85" font-family="Times,serif" font-size="14.00">disclosed</text>
</g>
<!-- Stéphanie Vilayphiou&#45;&gt;disclosed -->
<g id="edge17" class="edge"><title>Stéphanie Vilayphiou&#45;&gt;disclosed</title>
<path fill="none" stroke="black" d="M747.783,-879.204C747.935,-876.488 748.094,-873.636 748.254,-870.774"/>
<polygon fill="black" stroke="black" points="751.76,-870.761 748.823,-860.582 744.771,-870.371 751.76,-870.761"/>
</g>
<!-- discovered -->
<g id="node23" class="node"><title>discovered</title>
<ellipse fill="none" stroke="black" cx="589.824" cy="-804.549" rx="50.5427" ry="18"/>
<text text-anchor="middle" x="589.824" y="-800.849" font-family="Times,serif" font-size="14.00">discovered</text>
</g>
<!-- Stéphanie Vilayphiou&#45;&gt;discovered -->
<g id="edge26" class="edge"><title>Stéphanie Vilayphiou&#45;&gt;discovered</title>
<path fill="none" stroke="black" d="M717.61,-880.237C691.295,-864.65 652.534,-841.693 624.608,-825.152"/>
<polygon fill="black" stroke="black" points="626.339,-822.109 615.952,-820.024 622.772,-828.132 626.339,-822.109"/>
</g>
<!-- shouted -->
<g id="node26" class="node"><title>shouted</title>
<ellipse fill="none" stroke="black" cx="585.931" cy="-1007.39" rx="39.9464" ry="18"/>
<text text-anchor="middle" x="585.931" y="-1003.69" font-family="Times,serif" font-size="14.00">shouted</text>
</g>
<!-- Stéphanie Vilayphiou&#45;&gt;shouted -->
<g id="edge35" class="edge"><title>Stéphanie Vilayphiou&#45;&gt;shouted</title>
<path fill="none" stroke="black" d="M721.277,-914.916C692.9,-934.305 647.043,-965.638 616.691,-986.376"/>
<polygon fill="black" stroke="black" points="614.47,-983.655 608.188,-992.186 618.419,-989.434 614.47,-983.655"/>
</g>
<!-- todo -->
<g id="node19" class="node"><title>todo</title>
<ellipse fill="none" stroke="black" cx="747.323" cy="-726.739" rx="27.4223" ry="18"/>
<text text-anchor="middle" x="747.323" y="-723.039" font-family="Times,serif" font-size="14.00">todo</text>
</g>
<!-- disclosed&#45;&gt;todo -->
<g id="edge18" class="edge"><title>disclosed&#45;&gt;todo</title>
<path fill="none" stroke="black" d="M749.439,-824.454C749.038,-805.951 748.41,-776.936 747.942,-755.324"/>
<polygon fill="black" stroke="black" points="751.436,-755.012 747.721,-745.09 744.438,-755.163 751.436,-755.012"/>
</g>
<!-- Friday, -->
<g id="node20" class="node"><title>Friday,</title>
<ellipse fill="none" stroke="black" cx="821.501" cy="-766.593" rx="37.0701" ry="18"/>
<text text-anchor="middle" x="821.501" y="-762.893" font-family="Times,serif" font-size="14.00">Friday,</text>
</g>
<!-- todo&#45;&gt;Friday, -->
<g id="edge19" class="edge"><title>todo&#45;&gt;Friday,</title>
<path fill="none" stroke="black" d="M769.178,-738.481C774.921,-741.566 781.253,-744.969 787.47,-748.309"/>
<polygon fill="black" stroke="black" points="785.948,-751.464 796.414,-753.114 789.261,-745.298 785.948,-751.464"/>
</g>
<!-- 29th -->
<g id="node21" class="node"><title>29th</title>
<ellipse fill="none" stroke="black" cx="954.242" cy="-729.284" rx="27.4223" ry="18"/>
<text text-anchor="middle" x="954.242" y="-725.584" font-family="Times,serif" font-size="14.00">29th</text>
</g>
<!-- Friday,&#45;&gt;29th -->
<g id="edge20" class="edge"><title>Friday,&#45;&gt;29th</title>
<path fill="none" stroke="black" d="M854.57,-774.928C879.748,-772.703 913.446,-762.899 934.571,-751.446"/>
<polygon fill="black" stroke="black" points="936.618,-754.297 943.317,-746.089 932.961,-748.328 936.618,-754.297"/>
</g>
<!-- Friday,&#45;&gt;29th -->
<g id="edge29" class="edge"><title>Friday,&#45;&gt;29th</title>
<path fill="none" stroke="black" d="M833.081,-749.334C852.389,-736.074 891.317,-723.845 919.922,-721.065"/>
<polygon fill="black" stroke="black" points="920.158,-724.558 929.938,-720.484 919.752,-717.569 920.158,-724.558"/>
</g>
<!-- Friday,&#45;&gt;29th -->
<g id="edge48" class="edge"><title>Friday,&#45;&gt;29th</title>
<path fill="none" stroke="black" d="M847.177,-753.59C866.93,-746.602 894.503,-738.679 916.725,-733.522"/>
<polygon fill="black" stroke="black" points="917.502,-736.935 926.511,-731.36 915.992,-730.1 917.502,-736.935"/>
</g>
<!-- Friday,&#45;&gt;29th -->
<g id="edge66" class="edge"><title>Friday,&#45;&gt;29th</title>
<path fill="none" stroke="black" d="M857.656,-762.67C878.212,-757.958 903.679,-750.764 923.305,-744.109"/>
<polygon fill="black" stroke="black" points="924.714,-747.323 932.979,-740.694 922.384,-740.722 924.714,-747.323"/>
</g>
<!-- 29th&#45;&gt;June -->
<g id="edge21" class="edge"><title>29th&#45;&gt;June</title>
<path fill="none" stroke="black" d="M966.014,-745.811C981.218,-754.796 1008.07,-760.492 1029.05,-759.979"/>
<polygon fill="black" stroke="black" points="1029.41,-763.461 1039.1,-759.173 1028.85,-756.484 1029.41,-763.461"/>
</g>
<!-- 29th&#45;&gt;June -->
<g id="edge30" class="edge"><title>29th&#45;&gt;June</title>
<path fill="none" stroke="black" d="M974.594,-716.811C993.034,-714.24 1019.99,-718.215 1038.49,-725.905"/>
<polygon fill="black" stroke="black" points="1037.03,-729.088 1047.55,-730.394 1040.14,-722.816 1037.03,-729.088"/>
</g>
<!-- 29th&#45;&gt;June -->
<g id="edge49" class="edge"><title>29th&#45;&gt;June</title>
<path fill="none" stroke="black" d="M981.667,-727.822C995.184,-729.168 1011.59,-731.76 1025.82,-734.752"/>
<polygon fill="black" stroke="black" points="1025.19,-738.198 1035.71,-736.989 1026.73,-731.371 1025.19,-738.198"/>
</g>
<!-- 29th&#45;&gt;June -->
<g id="edge67" class="edge"><title>29th&#45;&gt;June</title>
<path fill="none" stroke="black" d="M977.595,-739.059C990.379,-742.173 1006.53,-745.096 1021.07,-746.997"/>
<polygon fill="black" stroke="black" points="1020.97,-750.509 1031.31,-748.189 1021.78,-743.555 1020.97,-750.509"/>
</g>
<!-- 10:55&#45;&gt;Stéphanie Vilayphiou -->
<g id="edge25" class="edge"><title>10:55&#45;&gt;Stéphanie Vilayphiou</title>
<path fill="none" stroke="black" d="M867.652,-955.505C846.719,-945.461 816.18,-930.809 791.034,-918.745"/>
<polygon fill="black" stroke="black" points="792.222,-915.433 781.692,-914.263 789.194,-921.744 792.222,-915.433"/>
</g>
<!-- merge -->
<g id="node24" class="node"><title>merge</title>
<ellipse fill="none" stroke="black" cx="721.087" cy="-782.663" rx="33.1991" ry="18"/>
<text text-anchor="middle" x="721.087" y="-778.963" font-family="Times,serif" font-size="14.00">merge</text>
</g>
<!-- discovered&#45;&gt;merge -->
<g id="edge27" class="edge"><title>discovered&#45;&gt;merge</title>
<path fill="none" stroke="black" d="M635.733,-796.894C649.637,-794.576 664.842,-792.041 678.517,-789.76"/>
<polygon fill="black" stroke="black" points="679.341,-793.172 688.629,-788.074 678.19,-786.267 679.341,-793.172"/>
</g>
<!-- merge&#45;&gt;Friday, -->
<g id="edge28" class="edge"><title>merge&#45;&gt;Friday,</title>
<path fill="none" stroke="black" d="M753.689,-777.445C760.936,-776.285 768.743,-775.036 776.391,-773.812"/>
<polygon fill="black" stroke="black" points="776.971,-777.264 786.292,-772.228 775.865,-770.352 776.971,-777.264"/>
</g>
<!-- 10:56&#45;&gt;Stéphanie Vilayphiou -->
<g id="edge34" class="edge"><title>10:56&#45;&gt;Stéphanie Vilayphiou</title>
<path fill="none" stroke="black" d="M859.506,-1001.38C837.726,-981.315 799.662,-946.244 773.848,-922.46"/>
<polygon fill="black" stroke="black" points="775.988,-919.673 766.262,-915.471 771.245,-924.821 775.988,-919.673"/>
</g>
<!-- vla -->
<g id="node27" class="node"><title>vla</title>
<ellipse fill="none" stroke="black" cx="467.15" cy="-1087.02" rx="27" ry="18"/>
<text text-anchor="middle" x="467.15" y="-1083.32" font-family="Times,serif" font-size="14.00">vla</text>
</g>
<!-- shouted&#45;&gt;vla -->
<g id="edge36" class="edge"><title>shouted&#45;&gt;vla</title>
<path fill="none" stroke="black" d="M563.589,-1022.37C544.067,-1035.46 515.652,-1054.5 494.72,-1068.54"/>
<polygon fill="black" stroke="black" points="492.612,-1065.74 486.255,-1074.21 496.51,-1071.55 492.612,-1065.74"/>
</g>
<!-- les -->
<g id="node28" class="node"><title>les</title>
<ellipse fill="none" stroke="black" cx="374.665" cy="-1137.45" rx="27" ry="18"/>
<text text-anchor="middle" x="374.665" y="-1133.75" font-family="Times,serif" font-size="14.00">les</text>
</g>
<!-- vla&#45;&gt;les -->
<g id="edge37" class="edge"><title>vla&#45;&gt;les</title>
<path fill="none" stroke="black" d="M446.164,-1098.46C433.866,-1105.17 418.13,-1113.75 404.554,-1121.15"/>
<polygon fill="black" stroke="black" points="402.672,-1118.19 395.568,-1126.05 406.023,-1124.34 402.672,-1118.19"/>
</g>
<!-- fichiers -->
<g id="node29" class="node"><title>fichiers</title>
<ellipse fill="none" stroke="black" cx="242.748" cy="-1182.65" rx="37.5442" ry="18"/>
<text text-anchor="middle" x="242.748" y="-1178.95" font-family="Times,serif" font-size="14.00">fichiers</text>
</g>
<!-- les&#45;&gt;fichiers -->
<g id="edge38" class="edge"><title>les&#45;&gt;fichiers</title>
<path fill="none" stroke="black" d="M350.469,-1145.74C331.764,-1152.15 305.445,-1161.17 283.505,-1168.69"/>
<polygon fill="black" stroke="black" points="282.101,-1165.47 273.776,-1172.02 284.37,-1172.09 282.101,-1165.47"/>
</g>
<!-- rouges -->
<g id="node30" class="node"><title>rouges</title>
<ellipse fill="none" stroke="black" cx="121.133" cy="-1183.31" rx="35.6194" ry="18"/>
<text text-anchor="middle" x="121.133" y="-1179.61" font-family="Times,serif" font-size="14.00">rouges</text>
</g>
<!-- fichiers&#45;&gt;rouges -->
<g id="edge39" class="edge"><title>fichiers&#45;&gt;rouges</title>
<path fill="none" stroke="black" d="M204.935,-1182.86C193.059,-1182.92 179.812,-1182.99 167.419,-1183.06"/>
<polygon fill="black" stroke="black" points="167.24,-1179.56 157.259,-1183.11 167.278,-1186.56 167.24,-1179.56"/>
</g>
<!-- et -->
<g id="node31" class="node"><title>et</title>
<ellipse fill="none" stroke="black" cx="27.446" cy="-1112.08" rx="27" ry="18"/>
<text text-anchor="middle" x="27.446" y="-1108.38" font-family="Times,serif" font-size="14.00">et</text>
</g>
<!-- rouges&#45;&gt;et -->
<g id="edge40" class="edge"><title>rouges&#45;&gt;et</title>
<path fill="none" stroke="black" d="M101.264,-1168.2C87.3058,-1157.59 68.4996,-1143.29 53.3628,-1131.78"/>
<polygon fill="black" stroke="black" points="55.4639,-1128.98 45.3851,-1125.71 51.2272,-1134.55 55.4639,-1128.98"/>
</g>
<!-- bleus -->
<g id="node32" class="node"><title>bleus</title>
<ellipse fill="none" stroke="black" cx="34.3368" cy="-996.384" rx="30.3206" ry="18"/>
<text text-anchor="middle" x="34.3368" y="-992.684" font-family="Times,serif" font-size="14.00">bleus</text>
</g>
<!-- et&#45;&gt;bleus -->
<g id="edge41" class="edge"><title>et&#45;&gt;bleus</title>
<path fill="none" stroke="black" d="M28.5227,-1094C29.6237,-1075.51 31.3501,-1046.53 32.636,-1024.94"/>
<polygon fill="black" stroke="black" points="36.1441,-1024.91 33.245,-1014.72 29.1565,-1024.49 36.1441,-1024.91"/>
</g>
<!-- + -->
<g id="node33" class="node"><title>+</title>
<ellipse fill="none" stroke="black" cx="95.711" cy="-911.141" rx="27" ry="18"/>
<text text-anchor="middle" x="95.711" y="-907.441" font-family="Times,serif" font-size="14.00">+</text>
</g>
<!-- bleus&#45;&gt;+ -->
<g id="edge42" class="edge"><title>bleus&#45;&gt;+</title>
<path fill="none" stroke="black" d="M46.4624,-979.543C55.4885,-967.006 67.9464,-949.703 78.0739,-935.637"/>
<polygon fill="black" stroke="black" points="81.0243,-937.53 84.027,-927.369 75.3436,-933.439 81.0243,-937.53"/>
</g>
<!-- formes -->
<g id="node34" class="node"><title>formes</title>
<ellipse fill="none" stroke="black" cx="209.221" cy="-826.456" rx="36.096" ry="18"/>
<text text-anchor="middle" x="209.221" y="-822.756" font-family="Times,serif" font-size="14.00">formes</text>
</g>
<!-- +&#45;&gt;formes -->
<g id="edge43" class="edge"><title>+&#45;&gt;formes</title>
<path fill="none" stroke="black" d="M113.948,-897.535C131.904,-884.139 159.6,-863.476 180.511,-847.875"/>
<polygon fill="black" stroke="black" points="182.802,-850.533 188.725,-841.748 178.617,-844.922 182.802,-850.533"/>
</g>
<!-- pour -->
<g id="node35" class="node"><title>pour</title>
<ellipse fill="none" stroke="black" cx="316.155" cy="-778.797" rx="28.3955" ry="18"/>
<text text-anchor="middle" x="316.155" y="-775.097" font-family="Times,serif" font-size="14.00">pour</text>
</g>
<!-- formes&#45;&gt;pour -->
<g id="edge44" class="edge"><title>formes&#45;&gt;pour</title>
<path fill="none" stroke="black" d="M236.482,-814.306C250.694,-807.972 268.189,-800.175 283.162,-793.502"/>
<polygon fill="black" stroke="black" points="284.867,-796.573 292.576,-789.306 282.017,-790.18 284.867,-796.573"/>
</g>
<!-- préparation -->
<g id="node36" class="node"><title>préparation</title>
<ellipse fill="none" stroke="black" cx="470.618" cy="-741.539" rx="52.4675" ry="18"/>
<text text-anchor="middle" x="470.618" y="-737.839" font-family="Times,serif" font-size="14.00">préparation</text>
</g>
<!-- pour&#45;&gt;préparation -->
<g id="edge45" class="edge"><title>pour&#45;&gt;préparation</title>
<path fill="none" stroke="black" d="M343.06,-772.307C363.587,-767.356 392.513,-760.379 417.632,-754.32"/>
<polygon fill="black" stroke="black" points="418.505,-757.71 427.405,-751.962 416.863,-750.905 418.505,-757.71"/>
</g>
<!-- thumbnails -->
<g id="node37" class="node"><title>thumbnails</title>
<ellipse fill="none" stroke="black" cx="642.311" cy="-722.6" rx="51.4931" ry="18"/>
<text text-anchor="middle" x="642.311" y="-718.9" font-family="Times,serif" font-size="14.00">thumbnails</text>
</g>
<!-- préparation&#45;&gt;thumbnails -->
<g id="edge46" class="edge"><title>préparation&#45;&gt;thumbnails</title>
<path fill="none" stroke="black" d="M520.74,-736.01C540.13,-733.871 562.48,-731.406 582.686,-729.177"/>
<polygon fill="black" stroke="black" points="583.163,-732.646 592.719,-728.07 582.396,-725.688 583.163,-732.646"/>
</g>
<!-- thumbnails&#45;&gt;Friday, -->
<g id="edge47" class="edge"><title>thumbnails&#45;&gt;Friday,</title>
<path fill="none" stroke="black" d="M684.776,-733.025C712.982,-739.95 749.899,-749.014 778.262,-755.977"/>
<polygon fill="black" stroke="black" points="777.746,-759.454 788.292,-758.44 779.415,-752.656 777.746,-759.454"/>
</g>
<!-- Ludivine Loiseau -->
<g id="node39" class="node"><title>Ludivine Loiseau</title>
<ellipse fill="none" stroke="black" cx="870.494" cy="-1259.15" rx="76.5394" ry="18"/>
<text text-anchor="middle" x="870.494" y="-1255.45" font-family="Times,serif" font-size="14.00">Ludivine Loiseau</text>
</g>
<!-- 15:37&#45;&gt;Ludivine Loiseau -->
<g id="edge53" class="edge"><title>15:37&#45;&gt;Ludivine Loiseau</title>
<path fill="none" stroke="black" d="M942.833,-1132.91C928.72,-1157.54 902.716,-1202.92 886.033,-1232.03"/>
<polygon fill="black" stroke="black" points="882.906,-1230.45 880.97,-1240.86 888.979,-1233.93 882.906,-1230.45"/>
</g>
<!-- let -->
<g id="node40" class="node"><title>let</title>
<ellipse fill="none" stroke="black" cx="768.601" cy="-1405.84" rx="27" ry="18"/>
<text text-anchor="middle" x="768.601" y="-1402.14" font-family="Times,serif" font-size="14.00">let</text>
</g>
<!-- Ludivine Loiseau&#45;&gt;let -->
<g id="edge54" class="edge"><title>Ludivine Loiseau&#45;&gt;let</title>
<path fill="none" stroke="black" d="M858,-1277.13C839.988,-1303.06 806.647,-1351.06 786.165,-1380.55"/>
<polygon fill="black" stroke="black" points="783.083,-1378.85 780.252,-1389.06 788.832,-1382.85 783.083,-1378.85"/>
</g>
<!-- loose -->
<g id="node41" class="node"><title>loose</title>
<ellipse fill="none" stroke="black" cx="724.164" cy="-1500.59" rx="30.3206" ry="18"/>
<text text-anchor="middle" x="724.164" y="-1496.89" font-family="Times,serif" font-size="14.00">loose</text>
</g>
<!-- let&#45;&gt;loose -->
<g id="edge55" class="edge"><title>let&#45;&gt;loose</title>
<path fill="none" stroke="black" d="M760.451,-1423.22C753.852,-1437.29 744.442,-1457.35 736.858,-1473.52"/>
<polygon fill="black" stroke="black" points="733.49,-1472.46 732.413,-1483 739.828,-1475.43 733.49,-1472.46"/>
</g>
<!-- clipping -->
<g id="node42" class="node"><title>clipping</title>
<ellipse fill="none" stroke="black" cx="777.748" cy="-1607.08" rx="41.394" ry="18"/>
<text text-anchor="middle" x="777.748" y="-1603.38" font-family="Times,serif" font-size="14.00">clipping</text>
</g>
<!-- loose&#45;&gt;clipping -->
<g id="edge56" class="edge"><title>loose&#45;&gt;clipping</title>
<path fill="none" stroke="black" d="M733.012,-1518.18C741.544,-1535.13 754.57,-1561.02 764.369,-1580.49"/>
<polygon fill="black" stroke="black" points="761.265,-1582.11 768.887,-1589.47 767.518,-1578.96 761.265,-1582.11"/>
</g>
<!-- text -->
<g id="node43" class="node"><title>text</title>
<ellipse fill="none" stroke="black" cx="900.267" cy="-1599.48" rx="27" ry="18"/>
<text text-anchor="middle" x="900.267" y="-1595.78" font-family="Times,serif" font-size="14.00">text</text>
</g>
<!-- clipping&#45;&gt;text -->
<g id="edge57" class="edge"><title>clipping&#45;&gt;text</title>
<path fill="none" stroke="black" d="M819.227,-1604.51C833.389,-1603.63 849.131,-1602.65 862.946,-1601.79"/>
<polygon fill="black" stroke="black" points="863.312,-1605.28 873.076,-1601.16 862.878,-1598.29 863.312,-1605.28"/>
</g>
<!-- and -->
<g id="node44" class="node"><title>and</title>
<ellipse fill="none" stroke="black" cx="985.013" cy="-1544.68" rx="27" ry="18"/>
<text text-anchor="middle" x="985.013" y="-1540.98" font-family="Times,serif" font-size="14.00">and</text>
</g>
<!-- text&#45;&gt;and -->
<g id="edge58" class="edge"><title>text&#45;&gt;and</title>
<path fill="none" stroke="black" d="M919.922,-1586.77C930.939,-1579.64 944.865,-1570.64 957.006,-1562.79"/>
<polygon fill="black" stroke="black" points="958.967,-1565.69 965.464,-1557.32 955.166,-1559.81 958.967,-1565.69"/>
</g>
<!-- images -->
<g id="node45" class="node"><title>images</title>
<ellipse fill="none" stroke="black" cx="1069.31" cy="-1435.32" rx="36.096" ry="18"/>
<text text-anchor="middle" x="1069.31" y="-1431.62" font-family="Times,serif" font-size="14.00">images</text>
</g>
<!-- and&#45;&gt;images -->
<g id="edge59" class="edge"><title>and&#45;&gt;images</title>
<path fill="none" stroke="black" d="M997.452,-1528.54C1011.3,-1510.58 1033.85,-1481.32 1050,-1460.38"/>
<polygon fill="black" stroke="black" points="1052.93,-1462.3 1056.27,-1452.24 1047.39,-1458.03 1052.93,-1462.3"/>
</g>
<!-- into -->
<g id="node46" class="node"><title>into</title>
<ellipse fill="none" stroke="black" cx="1122.07" cy="-1320.92" rx="27" ry="18"/>
<text text-anchor="middle" x="1122.07" y="-1317.22" font-family="Times,serif" font-size="14.00">into</text>
</g>
<!-- images&#45;&gt;into -->
<g id="edge60" class="edge"><title>images&#45;&gt;into</title>
<path fill="none" stroke="black" d="M1077.56,-1417.45C1086.2,-1398.7 1099.88,-1369.03 1109.8,-1347.53"/>
<polygon fill="black" stroke="black" points="1113.05,-1348.84 1114.06,-1338.3 1106.69,-1345.91 1113.05,-1348.84"/>
</g>
<!-- Balsa -->
<g id="node47" class="node"><title>Balsa</title>
<ellipse fill="none" stroke="black" cx="1152.28" cy="-1178.38" rx="30.3206" ry="18"/>
<text text-anchor="middle" x="1152.28" y="-1174.68" font-family="Times,serif" font-size="14.00">Balsa</text>
</g>
<!-- into&#45;&gt;Balsa -->
<g id="edge61" class="edge"><title>into&#45;&gt;Balsa</title>
<path fill="none" stroke="black" d="M1125.9,-1302.87C1131.07,-1278.45 1140.35,-1234.66 1146.41,-1206.07"/>
<polygon fill="black" stroke="black" points="1149.84,-1206.79 1148.49,-1196.29 1142.99,-1205.34 1149.84,-1206.79"/>
</g>
<!-- new -->
<g id="node48" class="node"><title>new</title>
<ellipse fill="none" stroke="black" cx="1148.14" cy="-1054.66" rx="27" ry="18"/>
<text text-anchor="middle" x="1148.14" y="-1050.96" font-family="Times,serif" font-size="14.00">new</text>
</g>
<!-- Balsa&#45;&gt;new -->
<g id="edge62" class="edge"><title>Balsa&#45;&gt;new</title>
<path fill="none" stroke="black" d="M1151.67,-1160.12C1150.99,-1139.84 1149.89,-1106.83 1149.1,-1083.14"/>
<polygon fill="black" stroke="black" points="1152.59,-1082.87 1148.76,-1072.99 1145.59,-1083.1 1152.59,-1082.87"/>
</g>
<!-- season -->
<g id="node49" class="node"><title>season</title>
<ellipse fill="none" stroke="black" cx="1065.48" cy="-937.128" rx="35.1455" ry="18"/>
<text text-anchor="middle" x="1065.48" y="-933.428" font-family="Times,serif" font-size="14.00">season</text>
</g>
<!-- new&#45;&gt;season -->
<g id="edge63" class="edge"><title>new&#45;&gt;season</title>
<path fill="none" stroke="black" d="M1136.65,-1038.32C1122.8,-1018.63 1099.39,-985.341 1083.22,-962.35"/>
<polygon fill="black" stroke="black" points="1086.02,-960.258 1077.41,-954.093 1080.3,-964.286 1086.02,-960.258"/>
</g>
<!-- tunnel -->
<g id="node50" class="node"><title>tunnel</title>
<ellipse fill="none" stroke="black" cx="965.35" cy="-848.351" rx="34.1708" ry="18"/>
<text text-anchor="middle" x="965.35" y="-844.651" font-family="Times,serif" font-size="14.00">tunnel</text>
</g>
<!-- season&#45;&gt;tunnel -->
<g id="edge64" class="edge"><title>season&#45;&gt;tunnel</title>
<path fill="none" stroke="black" d="M1047.58,-921.257C1031.77,-907.243 1008.55,-886.655 990.813,-870.928"/>
<polygon fill="black" stroke="black" points="992.9,-868.1 983.096,-864.085 988.256,-873.338 992.9,-868.1"/>
</g>
<!-- tunnel&#45;&gt;Friday, -->
<g id="edge65" class="edge"><title>tunnel&#45;&gt;Friday,</title>
<path fill="none" stroke="black" d="M941.918,-835.033C918.275,-821.595 881.545,-800.719 854.866,-785.556"/>
<polygon fill="black" stroke="black" points="856.309,-782.35 845.886,-780.452 852.85,-788.436 856.309,-782.35"/>
</g>
</g>
</svg>
